<svg xmlns="http://www.w3.org/2000/svg" xmlns:xlink="http://www.w3.org/1999/xlink" xmlns:fi="http://pattern.flaticon.com/" x="0" y="0" width="700" height="350" viewBox="0 0 700 350"><rect x="0px" y="0px" width="100%" height="100%" opacity="1" fill="#fffbf8"/><defs><g transform="matrix(0.5771762728691101 0 0 0.5771762728691101 10.921917766332626 207.92191776633263)" id="L1_1"><path d="M119.279,114.912c-1.206,64.645,50.222,118.03,114.87,119.236  c64.645,1.206,116.073,54.59,114.867,119.236c-1.131,60.605-48.12,109.595-107.256,114.487  c123.811-3.963,224.156-104.104,226.493-229.356C470.665,109.222,367.808,2.453,238.516,0.042c-4.041-0.075-7.986,0.255-11.98,0.383  C167.398,5.316,120.409,54.306,119.279,114.912z" fill="#2f4859"/><g><path d="M229.782,468.253c4.04,0.075,7.985-0.255,11.978-0.383c59.136-4.892,106.125-53.882,107.256-114.487   c1.206-64.645-50.222-118.03-114.867-119.236c-64.648-1.206-116.076-54.59-114.87-119.236   c1.131-60.605,48.12-109.595,107.257-114.487C102.724,4.387,2.378,104.528,0.042,229.78   C-2.37,359.072,100.488,465.841,229.782,468.253z" fill="#ebf0f3"/><circle cx="226" cy="105" r="40" fill="#ebf0f3"/></g><circle cx="257" cy="356" r="40" fill="#2f4859"/></g></defs><g fi:class="KUsePattern" opacity="0.14"><pattern id="pattern_L1_1" width="350" height="350" patternUnits="userSpaceOnUse"><use xlink:href="#L1_1" x="-350" y="-350"/><use xlink:href="#L1_1" x="0" y="-350"/><use xlink:href="#L1_1" x="350" y="-350"/><use xlink:href="#L1_1" x="-350" y="0"/><use xlink:href="#L1_1" x="0" y="0"/><use xlink:href="#L1_1" x="350" y="0"/><use xlink:href="#L1_1" x="-350" y="350"/><use xlink:href="#L1_1" x="0" y="350"/><use xlink:href="#L1_1" x="350" y="350"/></pattern><rect x="0" y="0" width="100%" height="100%" fill="url(#pattern_L1_1)"/></g></svg>